<?xml version="1.0" encoding="iso-8859-1"?>
<!-- Generator: Adobe Illustrator 19.0.0, SVG Export Plug-In . SVG Version: 6.00 Build 0)  -->
<svg version="1.1" id="Capa_1" xmlns="http://www.w3.org/2000/svg" xmlns:xlink="http://www.w3.org/1999/xlink" x="0px" y="0px"
	 viewBox="0 0 512 512" style="enable-background:new 0 0 512 512;" xml:space="preserve">
<circle style="fill:#FDE57F;" cx="254.044" cy="259.91" r="252.09"/>
<path style="fill:#5F6AB9;" d="M275.467,0H84.404C56.341,0,33.511,22.831,33.511,50.893c0,17.66,0,205.644,0,331.192
	C76.521,459.559,159.154,512,254.047,512c24.874,0,48.899-3.62,71.596-10.332c0.463-2.754,0.717-5.579,0.717-8.462
	c0-162.33,0-284.194,0-442.313C326.361,22.831,303.53,0,275.467,0z"/>
<path style="fill:#524FA1;" d="M92.028,50.893C92.028,22.831,114.859,0,142.921,0H84.404C56.341,0,33.511,22.831,33.511,50.893
	c0,17.66,0,205.644,0,331.192c15.046,27.102,34.945,51.134,58.517,70.936C92.028,310.102,92.028,195.698,92.028,50.893z"/>
<g>
	<path style="fill:#6D85D2;" d="M211.488,36.408h-34.113c-4.535,0-8.211-3.676-8.211-8.211s3.676-8.211,8.211-8.211h34.113
		c4.535,0,8.211,3.676,8.211,8.211S216.023,36.408,211.488,36.408z"/>
	<path style="fill:#6D85D2;" d="M148.537,36.404c-4.579,0-8.211-3.721-8.211-8.211c0-5.128,4.706-9.051,9.82-8.046
		c4.001,0.83,6.602,4.257,6.602,8.046C156.748,32.732,153.077,36.404,148.537,36.404z"/>
</g>
<path style="fill:#DAECF7;" d="M254.047,512c12.748,0,25.271-0.957,37.508-2.788c4.083-4.104,6.608-9.76,6.608-16.007
	c0-12.274,0-399.036,0-442.312c0-12.535-10.161-22.696-22.696-22.696h-23.812c-4.689,0-8.49,3.8-8.493,8.488v5.392
	c0,7.226-5.912,13.138-13.138,13.138l0,0H129.847h-0.001c-7.225,0-13.138-5.912-13.138-13.138v-5.392
	c-0.003-4.688-3.805-8.488-8.493-8.488H84.404c-12.535,0-22.696,10.161-22.696,22.696v371.955
	C107.945,477.383,176.949,512,254.047,512z"/>
<path style="fill:#B2D9ED;" d="M92.028,50.893c0-8.153,1.938-15.858,5.36-22.696H84.404c-12.535,0-22.696,10.161-22.696,22.696
	v371.924c9.11,10.745,19.087,20.749,30.32,30.186C92.028,310.093,92.028,195.692,92.028,50.893z"/>
<path style="fill:#BBEF89;" d="M275.467,28.197h-23.812c-4.689,0-8.489,3.799-8.493,8.488v5.392c0,7.226-5.912,13.138-13.138,13.138
	h-0.001H129.847h-0.001c-7.225,0-13.138-5.912-13.138-13.138v-5.392c-0.003-4.688-3.805-8.488-8.493-8.488H84.404
	c-12.535,0-22.696,10.161-22.696,22.696v62.025h236.455c0-34.012,0-52.705,0-62.025C298.163,38.358,288.002,28.197,275.467,28.197z"
	/>
<path style="fill:#7DD776;" d="M92.028,50.893c0-8.153,1.938-15.858,5.36-22.696H84.404c-12.535,0-22.696,10.161-22.696,22.696
	v62.025h30.32C92.028,92.77,92.028,72.166,92.028,50.893z"/>
<path style="fill:#FB6467;" d="M439.746,18.279C373.312-19.911,286.203,3.781,248.24,70.345
	c-33.661,59.021-19.709,132.313,29.893,175.237c2.62,2.267,3.998,5.653,3.79,9.112l-2.21,36.827
	c-0.124,2.061,2.158,3.379,3.881,2.241l32.729-21.61c1.727-1.14,3.894-1.413,5.838-0.705c62.684,22.819,134.585-1.901,169.093-61.67
	C529.985,142.696,506.929,56.898,439.746,18.279z"/>
<g>
	<path style="fill:#DAECF7;" d="M388.183,189.601h-3.467v-61.776c0-8.163-6.617-14.78-14.78-14.78H351.69
		c-8.163,0-14.78,6.617-14.78,14.78s6.617,14.78,14.78,14.78h3.467v46.997h-3.467c-8.163,0-14.78,6.617-14.78,14.78
		s6.617,14.78,14.78,14.78h36.493c8.163,0,14.78-6.617,14.78-14.78C402.963,196.218,396.346,189.601,388.183,189.601z"/>
	<circle style="fill:#DAECF7;" cx="367.454" cy="76.953" r="17.26"/>
</g>
<path style="fill:#14C0EB;" d="M206.339,226.006h-54.195c-9.451,0-17.114,7.662-17.114,17.114v35.336
	c0,2.277,1.846,4.123,4.123,4.123h80.494c2.102,0,3.807-1.704,3.807-3.806v-35.651C223.454,233.669,215.792,226.006,206.339,226.006
	z"/>
<path style="fill:#00ADDC;" d="M168.868,243.121c0-9.452,7.661-17.115,17.113-17.115h-33.837c-9.498,0-17.114,7.733-17.114,17.115
	v35.336c0.001,2.277,1.846,4.122,4.123,4.122h29.714L168.868,243.121L168.868,243.121z"/>
<circle style="fill:#F4C3B8;" cx="179.244" cy="184.37" r="28.623"/>
<path style="fill:#EAB5AC;" d="M179.243,155.751c-21.851-0.023-35.856,23.767-24.791,42.932
	c11.063,19.162,38.67,18.932,49.576-0.003C181.993,198.657,168.251,174.837,179.243,155.751z"/>
<path style="fill:#B2D9ED;" d="M185.22,485.879h-11.955c-4.535,0-8.211-3.676-8.211-8.211s3.676-8.211,8.211-8.211h11.955
	c4.535,0,8.211,3.676,8.211,8.211S189.755,485.879,185.22,485.879z"/>
<g>
	<path style="fill:#FFFFFF;" d="M248.876,328.155H136.074c-4.535,0-8.211-3.676-8.211-8.211s3.676-8.211,8.211-8.211h112.803
		c4.535,0,8.211,3.676,8.211,8.211S253.411,328.155,248.876,328.155z"/>
	<path style="fill:#FFFFFF;" d="M106.42,328.155c-4.535,0-8.215-3.676-8.215-8.211s3.672-8.211,8.207-8.211h0.008
		c4.535,0,8.211,3.676,8.211,8.211S110.955,328.155,106.42,328.155z"/>
	<path style="fill:#FFFFFF;" d="M248.876,362.143H136.074c-4.535,0-8.211-3.676-8.211-8.211s3.676-8.211,8.211-8.211h112.803
		c4.535,0,8.211,3.676,8.211,8.211S253.411,362.143,248.876,362.143z"/>
	<path style="fill:#FFFFFF;" d="M248.876,396.131H136.074c-4.535,0-8.211-3.676-8.211-8.211s3.676-8.211,8.211-8.211h112.803
		c4.535,0,8.211,3.676,8.211,8.211S253.411,396.131,248.876,396.131z"/>
	<path style="fill:#FFFFFF;" d="M248.876,430.119H136.074c-4.535,0-8.211-3.676-8.211-8.211s3.676-8.211,8.211-8.211h112.803
		c4.535,0,8.211,3.676,8.211,8.211S253.411,430.119,248.876,430.119z"/>
	<path style="fill:#FFFFFF;" d="M106.42,396.131c-4.535,0-8.215-3.676-8.215-8.211s3.672-8.211,8.207-8.211h0.008
		c4.535,0,8.211,3.676,8.211,8.211S110.955,396.131,106.42,396.131z"/>
</g>
<path style="fill:#EF525A;" d="M425.738,246.972c-73.966,0-133.927-59.961-133.927-133.927c0-46.696,23.903-87.802,60.136-111.771
	c-42.096,5.64-81.392,29.944-103.707,69.07c-33.661,59.021-19.709,132.313,29.893,175.237c2.62,2.267,3.998,5.653,3.79,9.112
	l-2.21,36.827c-0.124,2.061,2.158,3.379,3.881,2.241l32.729-21.61c1.727-1.14,3.894-1.413,5.838-0.705
	c50.602,18.421,107.207,5.856,145.302-31.113C454.332,244.637,440.309,246.972,425.738,246.972z"/>
<g>
</g>
<g>
</g>
<g>
</g>
<g>
</g>
<g>
</g>
<g>
</g>
<g>
</g>
<g>
</g>
<g>
</g>
<g>
</g>
<g>
</g>
<g>
</g>
<g>
</g>
<g>
</g>
<g>
</g>
</svg>
